<svg xmlns="http://www.w3.org/2000/svg" version="1.1" xmlns:xlink="http://www.w3.org/1999/xlink" viewBox="0 0 9.85301279296875 10.966880784264792"><g transform="matrix(0.8571428571428571,0,0,0.8571428571428571,1.4075732561383933,7.796391957319538)"><rect width="12.609049583092917" height="12.609049583092917" x="-2.199102794476146" y="-9.00296828426479" fill="#ffffff"></rect><g transform="matrix(1,0,0,1,0,0)" clip-path="url(#SvgjsClipPath71110)"><g clip-path="url(#SvgjsClipPath711051e35debf-90a1-4e56-95bc-01c7e3de12c5)"><path d=" M 3.5647021713846465 -2.861476491459655 L 4.104976960176744 -2.321201702667561 L 4.442314925501629 -1.9838637373426762 L 5.243381333924833 -1.1827973289194684 L 4.456556106095818 -0.3959721010904538 C 4.261695756919035 -0.2017848466682155 3.946478015860173 -0.2017848466682155 3.7516176666833934 -0.3959721010904538 L 3.3065807731149457 -0.8454593635945837 L 2.969242807790061 -1.1827973289194684 L 2.2749852538232798 -1.8770548828862497 C 1.9746203992927576 -2.171019089819599 1.7485416605284052 -2.5322569126225662 1.6154405775548388 -2.9309022468563395 C 1.63591227465899 -2.907760328390779 1.6581641193374101 -2.884618409925219 1.680415964015834 -2.862366565246795 C 2.2017764865483977 -2.341163469824135 3.046901944000628 -2.341163469824135 3.568262466533192 -2.862366565246795 Z" fill="#3682ae" transform="matrix(1,0,0,1,0,0)" fill-rule="evenodd"></path></g><g clip-path="url(#SvgjsClipPath711051e35debf-90a1-4e56-95bc-01c7e3de12c5)"><path d=" M 1.6118802824062934 -4.6790071647932 C 1.7445108758147707 -5.078133271674364 1.9706451325994545 -5.439764977868493 2.2714249586747304 -5.733744602550418 L 2.7930081979369534 -6.255327841812641 L 3.9323026454721823 -5.116033394277412 L 3.5647021713846465 -4.749322993977012 L 3.5647021713846465 -4.749322993977012 C 3.0433416488520826 -5.270526089399673 2.1982161913998524 -5.270526089399673 1.6768556688672924 -4.749322993977012 C 1.6546038241888685 -4.726181075511452 1.6323519795104446 -4.703039157045896 1.6118802824062934 -4.6790071647932 Z" fill="#3682ae" transform="matrix(1,0,0,1,0,0)" fill-rule="evenodd"></path></g><g clip-path="url(#SvgjsClipPath711051e35debf-90a1-4e56-95bc-01c7e3de12c5)"><path d=" M 6.597183564160055 -2.9300121730691995 C 6.464651584071242 -2.531307269434464 6.2388395804126295 -2.1700080635806813 5.938528961678754 -1.8761648090991097 L 5.416945722416531 -1.3545815698368937 L 4.276761201094169 -2.4938760173721226 L 4.64436167518171 -2.8614764914596584 L 4.64436167518171 -2.8614764914596584 C 5.165722197714269 -2.3402733960369986 6.0108476551665 -2.3402733960369986 6.53220817769906 -2.8614764914596584 C 6.55535009616462 -2.8846184099252152 6.5767118670559075 -2.906870254603639 6.597183564160055 -2.9300121730691995 Z" fill="#102036" transform="matrix(1,0,0,1,0,0)" fill-rule="evenodd"></path></g><g clip-path="url(#SvgjsClipPath711051e35debf-90a1-4e56-95bc-01c7e3de12c5)"><path d=" M 4.457446179882955 -7.214827384346218 L 5.938528961678751 -5.732854528763282 C 6.238839580412622 -5.439011274281717 6.464651584071235 -5.077712068427935 6.597183564160047 -4.6790071647932 C 6.5764151757935245 -4.702149083258759 6.555053404902237 -4.725291001724316 6.533098251486196 -4.748432920189876 C 6.011737728953636 -5.269636015612537 5.166612271501402 -5.269636015612537 4.6452517489688425 -4.748432920189876 L 2.965682512641515 -6.428002156517199 L 3.7525077404705334 -7.214827384346214 C 3.9473680896473136 -7.409014638768452 4.262585830706179 -7.409014638768452 4.457446179882958 -7.214827384346214 Z" fill="#102036" transform="matrix(1,0,0,1,0,0)" fill-rule="evenodd"></path></g><g clip-path="url(#SvgjsClipPath711051e35debf-90a1-4e56-95bc-01c7e3de12c5)"><path d=" M 3.4205102178684665 -3.0038882974015584 C 3.8026587565991337 -3.3855613961191744 3.8619978088231917 -3.9840237489509014 3.5622409355666727 -4.433309489737503 C 3.2624840623101576 -4.882595230524102 2.687108765643813 -5.057585455570671 2.187962940117377 -4.851271847686412 C 1.688817114590937 -4.6449582398021505 1.404904901231493 -4.1147958439449255 1.5098415301093135 -3.5849844021484585 C 1.6147781589871306 -3.055172960351995 2.0793404548025762 -2.6732564980432647 2.6194438094452632 -2.672780848586635 C 2.9199133311277583 -2.6720247337791676 3.2082609140008094 -2.791208401366694 3.4205102178684665 -3.0038882974015584 Z" fill="#3682ae" transform="matrix(1,0,0,1,0,0)" fill-rule="evenodd"></path></g><g clip-path="url(#SvgjsClipPath711051e35debf-90a1-4e56-95bc-01c7e3de12c5)"><path d=" M 6.389796371757156 -3.0047783711886984 C 6.771022386764397 -3.3866263475786016 6.829514893525684 -3.984559631588309 6.529516097870835 -4.433048064211724 C 6.2295173022159895 -4.881536496835139 5.6545382617538635 -5.055733765766373 5.1560766865230825 -4.849149135142953 C 4.657615111292305 -4.642564504519526 4.374428402748537 -4.112705208500289 4.479635009672988 -3.583486235436394 C 4.584841616597447 -3.054267262372491 5.049155038047605 -2.673007990832641 5.588729963333953 -2.6727808485866316 C 5.8893082285885425 -2.6723591732622722 6.177637509709076 -2.7918556419933394 6.389796371757156 -3.004778371188695 Z" fill="#102036" transform="matrix(1,0,0,1,0,0)" fill-rule="evenodd"></path></g></g><g><path d=" M 1.026 0.018000000000000016 L 1.026 0.8205 L 1.02 0.8205 L 0.1875 0 L 0.18 0 L 0.18 1.068 L 0.249 1.068 L 0.249 0.26550000000000007 L 0.255 0.26550000000000007 L 1.0875000000000001 1.086 L 1.095 1.086 L 1.095 0.018000000000000016 L 1.026 0.018000000000000016 M 1.45346337890625 0.018000000000000016 L 1.45346337890625 1.068 L 2.13146337890625 1.068 L 2.13146337890625 0.9855 L 1.5899633789062502 0.9855 L 1.5899633789062502 0.546 L 2.0549633789062502 0.546 L 2.0549633789062502 0.4770000000000001 L 1.5899633789062502 0.4770000000000001 L 1.5899633789062502 0.10050000000000003 L 2.13146337890625 0.10050000000000003 L 2.13146337890625 0.018000000000000016 L 1.45346337890625 0.018000000000000016 M 2.387947998046875 0.018000000000000016 L 2.219947998046875 0.018000000000000016 L 2.629447998046875 0.5445000000000001 L 2.227447998046875 1.068 L 2.308447998046875 1.068 L 2.666947998046875 0.5985 L 2.672947998046875 0.5985 L 3.0389479980468748 1.068 L 3.208447998046875 1.068 L 2.7539479980468746 0.48750000000000004 L 3.112447998046875 0.018000000000000016 L 3.032947998046875 0.018000000000000016 L 2.716447998046875 0.4305 L 2.7089479980468747 0.4305 L 2.387947998046875 0.018000000000000016 M 4.315439208984375 0.8745 Q 4.162439208984375 1.0185 3.9524392089843747 1.0185 Q 3.8354392089843747 1.0185 3.745439208984375 0.9780000000000001 Q 3.655439208984375 0.9375 3.595439208984375 0.8700000000000001 Q 3.535439208984375 0.8025 3.5046892089843746 0.7140000000000001 Q 3.473939208984375 0.6255000000000001 3.473939208984375 0.5295000000000001 Q 3.473939208984375 0.4275000000000001 3.5061892089843747 0.34275 Q 3.538439208984375 0.258 3.596939208984375 0.1965 Q 3.655439208984375 0.135 3.735689208984375 0.10050000000000003 Q 3.815939208984375 0.06600000000000006 3.910439208984375 0.06600000000000006 Q 3.9749392089843747 0.06600000000000006 4.028189208984375 0.08100000000000007 Q 4.081439208984375 0.09600000000000009 4.122689208984375 0.12 Q 4.163939208984375 0.14400000000000002 4.190189208984375 0.17475000000000007 Q 4.216439208984375 0.20550000000000002 4.2269392089843745 0.237 L 4.337939208984375 0.237 Q 4.315439208984375 0.18600000000000005 4.280189208984375 0.14250000000000007 Q 4.244939208984375 0.09900000000000009 4.192439208984375 0.06750000000000012 Q 4.139939208984375 0.03600000000000003 4.069439208984375 0.018000000000000016 Q 3.9989392089843747 0 3.908939208984375 0 Q 3.778439208984375 0 3.6711892089843747 0.03750000000000009 Q 3.5639392089843747 0.07500000000000007 3.487439208984375 0.14475000000000005 Q 3.4109392089843746 0.21450000000000002 3.368939208984375 0.3127500000000001 Q 3.326939208984375 0.41100000000000003 3.326939208984375 0.5325000000000001 Q 3.326939208984375 0.6375000000000001 3.360689208984375 0.7372500000000001 Q 3.394439208984375 0.8370000000000001 3.464939208984375 0.91425 Q 3.535439208984375 0.9915 3.6449392089843746 1.03875 Q 3.7544392089843748 1.086 3.9059392089843747 1.086 Q 4.001939208984375 1.086 4.077689208984375 1.068 Q 4.153439208984375 1.05 4.209689208984375 1.0237500000000002 Q 4.265939208984375 0.9975 4.303439208984375 0.9675 Q 4.340939208984375 0.9375 4.360439208984375 0.915 L 4.315439208984375 0.8745 M 4.5088974609375 0.018000000000000016 L 4.5088974609375 0.663 Q 4.5088974609375 0.7245 4.5208974609374994 0.7987500000000001 Q 4.5328974609375 0.873 4.5778974609375 0.9367500000000001 Q 4.6228974609375 1.0005000000000002 4.7113974609375 1.04325 Q 4.799897460937499 1.086 4.9528974609375 1.086 Q 5.0488974609375 1.086 5.1231474609375 1.056 Q 5.1973974609375 1.026 5.2476474609374995 0.9735 Q 5.2978974609375 0.921 5.3233974609375 0.8512500000000001 Q 5.3488974609375 0.7815000000000001 5.3488974609375 0.7020000000000001 L 5.3488974609375 0.018000000000000016 L 5.2828974609375 0.018000000000000016 L 5.2828974609375 0.6525000000000001 Q 5.2828974609375 0.6855 5.2813974609375 0.7192500000000001 Q 5.2798974609375 0.7530000000000001 5.2723974609374995 0.7867500000000001 Q 5.2648974609375 0.8205 5.2491474609374995 0.8535 Q 5.2333974609375 0.8865000000000001 5.2033974609374996 0.9195000000000001 Q 5.1493974609375 0.9780000000000001 5.081897460937499 0.9990000000000001 Q 5.0143974609374995 1.02 4.940897460937499 1.02 Q 4.8778974609375 1.02 4.8291474609375 1.0005000000000002 Q 4.7803974609374995 0.9810000000000001 4.7368974609375 0.9420000000000001 Q 4.7023974609375 0.912 4.684397460937499 0.8820000000000001 Q 4.6663974609375 0.8520000000000001 4.6573974609375 0.8227500000000001 Q 4.6483974609375 0.7935000000000001 4.6468974609375 0.7635000000000001 Q 4.6453974609375 0.7335 4.6453974609375 0.7035 L 4.6453974609375 0.018000000000000016 L 4.5088974609375 0.018000000000000016 M 5.647353515624999 1.068 L 6.0238535156249995 1.068 Q 6.124353515625 1.068 6.193353515625 1.04175 Q 6.262353515625 1.0155 6.3043535156249995 0.9735 Q 6.346353515624999 0.9315 6.365103515625 0.8782500000000001 Q 6.383853515625 0.8250000000000001 6.383853515625 0.7710000000000001 Q 6.383853515625 0.6855 6.347103515624999 0.6345000000000001 Q 6.310353515625 0.5835000000000001 6.2593535156249995 0.5565 Q 6.208353515624999 0.5295000000000001 6.154353515625 0.5205000000000001 Q 6.100353515625 0.5115000000000001 6.067353515624999 0.51 L 6.067353515624999 0.504 Q 6.119853515625 0.504 6.166353515625 0.48375 Q 6.2128535156249995 0.4635 6.248103515625 0.43125 Q 6.2833535156249996 0.399 6.3043535156249995 0.35625000000000007 Q 6.325353515624999 0.3135 6.325353515624999 0.26550000000000007 Q 6.325353515624999 0.22350000000000003 6.307353515625 0.18000000000000005 Q 6.289353515625 0.13650000000000007 6.252603515624999 0.10050000000000003 Q 6.215853515625 0.0645 6.158103515624999 0.04125000000000001 Q 6.100353515625 0.018000000000000016 6.022353515624999 0.018000000000000016 L 5.647353515624999 0.018000000000000016 L 5.647353515624999 1.068 M 5.783853515624999 1.002 L 5.783853515624999 0.543 L 5.948853515624999 0.543 Q 6.022353515624999 0.543 6.076353515625 0.5625 Q 6.130353515625 0.5820000000000001 6.1656035156249995 0.615 Q 6.200853515625 0.6480000000000001 6.218103515625 0.6915 Q 6.2353535156249995 0.7350000000000001 6.2353535156249995 0.783 Q 6.2353535156249995 0.8355 6.216603515625 0.8760000000000001 Q 6.197853515625 0.9165000000000001 6.166353515625 0.9450000000000001 Q 6.134853515625 0.9735 6.092103515624999 0.98775 Q 6.049353515625 1.002 6.0013535156249995 1.002 L 5.783853515624999 1.002 M 5.783853515624999 0.4770000000000001 L 5.783853515624999 0.08400000000000007 L 5.966853515625 0.08400000000000007 Q 6.0253535156249995 0.08400000000000007 6.066603515624999 0.10050000000000003 Q 6.107853515625 0.11699999999999999 6.134103515625 0.14400000000000002 Q 6.160353515624999 0.17100000000000004 6.172353515625 0.20550000000000002 Q 6.184353515624999 0.24 6.184353515624999 0.2745000000000001 Q 6.184353515624999 0.31800000000000006 6.167103515625 0.35550000000000004 Q 6.149853515625 0.393 6.1191035156249995 0.42000000000000004 Q 6.088353515625 0.44700000000000006 6.0486035156249995 0.4620000000000001 Q 6.008853515625 0.4770000000000001 5.963853515625 0.4770000000000001 L 5.783853515624999 0.4770000000000001 M 6.69736962890625 0.018000000000000016 L 6.69736962890625 1.068 L 6.83386962890625 1.068 L 6.83386962890625 0.018000000000000016 L 6.69736962890625 0.018000000000000016 M 8.135885742187499 0.8745 Q 7.9828857421874995 1.0185 7.7728857421874995 1.0185 Q 7.6558857421874995 1.0185 7.5658857421875 0.9780000000000001 Q 7.4758857421875 0.9375 7.415885742187499 0.8700000000000001 Q 7.3558857421875 0.8025 7.325135742187499 0.7140000000000001 Q 7.2943857421875 0.6255000000000001 7.2943857421875 0.5295000000000001 Q 7.2943857421875 0.4275000000000001 7.3266357421874995 0.34275 Q 7.3588857421875 0.258 7.417385742187499 0.1965 Q 7.4758857421875 0.135 7.556135742187499 0.10050000000000003 Q 7.6363857421875 0.06600000000000006 7.7308857421875 0.06600000000000006 Q 7.7953857421874995 0.06600000000000006 7.8486357421875 0.08100000000000007 Q 7.9018857421875 0.09600000000000009 7.9431357421875 0.12 Q 7.9843857421874995 0.14400000000000002 8.0106357421875 0.17475000000000007 Q 8.036885742187499 0.20550000000000002 8.0473857421875 0.237 L 8.1583857421875 0.237 Q 8.135885742187499 0.18600000000000005 8.1006357421875 0.14250000000000007 Q 8.0653857421875 0.09900000000000009 8.0128857421875 0.06750000000000012 Q 7.9603857421874995 0.03600000000000003 7.8898857421874995 0.018000000000000016 Q 7.8193857421874995 0 7.7293857421875 0 Q 7.5988857421875 0 7.4916357421874995 0.03750000000000009 Q 7.3843857421875 0.07500000000000007 7.3078857421875 0.14475000000000005 Q 7.231385742187499 0.21450000000000002 7.1893857421875 0.3127500000000001 Q 7.1473857421875 0.41100000000000003 7.1473857421875 0.5325000000000001 Q 7.1473857421875 0.6375000000000001 7.181135742187499 0.7372500000000001 Q 7.2148857421875 0.8370000000000001 7.2853857421875 0.91425 Q 7.3558857421875 0.9915 7.465385742187499 1.03875 Q 7.5748857421875 1.086 7.7263857421874995 1.086 Q 7.8223857421875 1.086 7.8981357421875 1.068 Q 7.9738857421875 1.05 8.0301357421875 1.0237500000000002 Q 8.086385742187499 0.9975 8.1238857421875 0.9675 Q 8.1613857421875 0.9375 8.180885742187499 0.915 L 8.135885742187499 0.8745" fill="#102036" fill-rule="nonzero"></path></g><g><path d=" M 0.9197534179687501 1.7329124999999999 Q 0.9505034179687502 1.7696624999999997 0.9505034179687502 1.8184124999999998 Q 0.9505034179687502 1.8581624999999997 0.9306284179687501 1.8900374999999998 Q 0.9107534179687502 1.9219124999999997 0.8725034179687501 1.9402874999999997 Q 0.8342534179687502 1.9586624999999998 0.7810034179687502 1.9586624999999998 L 0.5995034179687502 1.9586624999999998 L 0.5995034179687502 1.4344124999999996 L 0.7757534179687502 1.4344124999999996 Q 0.8552534179687501 1.4344124999999996 0.8968784179687501 1.4711624999999997 Q 0.9385034179687501 1.5079124999999998 0.9385034179687501 1.5664124999999998 Q 0.9385034179687501 1.6151624999999998 0.9122534179687501 1.6455374999999997 Q 0.8860034179687502 1.6759124999999997 0.8447534179687501 1.6879124999999997 Q 0.8890034179687502 1.6961624999999998 0.9197534179687501 1.7329124999999999 M 0.6520034179687502 1.6661624999999998 L 0.7742534179687501 1.6661624999999998 Q 0.8275034179687502 1.6661624999999998 0.8563784179687501 1.6410374999999997 Q 0.8852534179687501 1.6159124999999999 0.8852534179687501 1.5716624999999997 Q 0.8852534179687501 1.5281624999999996 0.8563784179687501 1.5034124999999998 Q 0.8275034179687502 1.4786624999999998 0.7720034179687502 1.4786624999999998 L 0.6520034179687502 1.4786624999999998 L 0.6520034179687502 1.6661624999999998 M 0.8661284179687501 1.8874124999999997 Q 0.8980034179687502 1.8604124999999998 0.8980034179687502 1.8131624999999998 Q 0.8980034179687502 1.7659124999999998 0.8646284179687501 1.7377874999999998 Q 0.8312534179687501 1.7096624999999999 0.7750034179687502 1.7096624999999999 L 0.6520034179687502 1.7096624999999999 L 0.6520034179687502 1.9144124999999999 L 0.7772534179687501 1.9144124999999999 Q 0.8342534179687502 1.9144124999999999 0.8661284179687501 1.8874124999999997 M 1.1016170654296875 1.4771624999999997 L 1.1016170654296875 1.6729124999999998 L 1.3003670654296875 1.6729124999999998 L 1.3003670654296875 1.7164124999999997 L 1.1016170654296875 1.7164124999999997 L 1.1016170654296875 1.9151624999999997 L 1.3228670654296875 1.9151624999999997 L 1.3228670654296875 1.9586624999999998 L 1.0491170654296875 1.9586624999999998 L 1.0491170654296875 1.4336624999999996 L 1.3228670654296875 1.4336624999999996 L 1.3228670654296875 1.4771624999999997 L 1.1016170654296875 1.4771624999999997 M 1.496110107421875 1.9459124999999997 Q 1.456735107421875 1.9279124999999997 1.434235107421875 1.8956624999999998 Q 1.4117351074218751 1.8634124999999997 1.410235107421875 1.8236624999999997 L 1.465735107421875 1.8236624999999997 Q 1.469485107421875 1.8619124999999999 1.4994851074218751 1.8907874999999998 Q 1.5294851074218752 1.9196624999999998 1.5872351074218751 1.9196624999999998 Q 1.640485107421875 1.9196624999999998 1.671610107421875 1.8922874999999997 Q 1.702735107421875 1.8649124999999998 1.702735107421875 1.8229124999999997 Q 1.702735107421875 1.7891624999999998 1.685485107421875 1.7685374999999997 Q 1.668235107421875 1.7479124999999998 1.642735107421875 1.7377874999999998 Q 1.617235107421875 1.7276624999999997 1.572235107421875 1.7156624999999996 Q 1.519735107421875 1.7014124999999998 1.488985107421875 1.6879124999999997 Q 1.4582351074218751 1.6744124999999999 1.436485107421875 1.6459124999999997 Q 1.414735107421875 1.6174124999999997 1.414735107421875 1.5686624999999998 Q 1.414735107421875 1.5281624999999996 1.4357351074218752 1.4962874999999998 Q 1.456735107421875 1.4644124999999997 1.494985107421875 1.4464124999999997 Q 1.533235107421875 1.4284124999999999 1.582735107421875 1.4284124999999999 Q 1.655485107421875 1.4284124999999999 1.700110107421875 1.4640374999999997 Q 1.744735107421875 1.4996624999999997 1.7514851074218751 1.5559124999999998 L 1.694485107421875 1.5559124999999998 Q 1.689235107421875 1.5236624999999997 1.659235107421875 1.4985374999999999 Q 1.629235107421875 1.4734124999999998 1.578235107421875 1.4734124999999998 Q 1.530985107421875 1.4734124999999998 1.4994851074218751 1.4985374999999999 Q 1.467985107421875 1.5236624999999997 1.467985107421875 1.5671624999999998 Q 1.467985107421875 1.6001624999999997 1.485235107421875 1.6204124999999998 Q 1.502485107421875 1.6406624999999997 1.5283601074218751 1.6511624999999999 Q 1.554235107421875 1.6616624999999998 1.598485107421875 1.6736624999999998 Q 1.649485107421875 1.6879124999999997 1.6809851074218751 1.7017874999999998 Q 1.712485107421875 1.7156624999999996 1.734235107421875 1.7441624999999998 Q 1.755985107421875 1.7726624999999998 1.755985107421875 1.8206624999999996 Q 1.755985107421875 1.8574124999999997 1.736485107421875 1.8904124999999998 Q 1.7169851074218752 1.9234124999999997 1.678735107421875 1.9436624999999998 Q 1.640485107421875 1.9639124999999997 1.5872351074218751 1.9639124999999997 Q 1.535485107421875 1.9639124999999997 1.496110107421875 1.9459124999999997 M 2.165876220703125 1.4344124999999996 L 2.165876220703125 1.4779124999999997 L 2.020376220703125 1.4779124999999997 L 2.020376220703125 1.9586624999999998 L 1.9678762207031248 1.9586624999999998 L 1.9678762207031248 1.4779124999999997 L 1.8216262207031249 1.4779124999999997 L 1.8216262207031249 1.4344124999999996 L 2.165876220703125 1.4344124999999996 M 2.7651309814453127 1.4344124999999996 L 2.7651309814453127 1.4779124999999997 L 2.6196309814453125 1.4779124999999997 L 2.6196309814453125 1.9586624999999998 L 2.5671309814453127 1.9586624999999998 L 2.5671309814453127 1.4779124999999997 L 2.4208809814453125 1.4779124999999997 L 2.4208809814453125 1.4344124999999996 L 2.7651309814453127 1.4344124999999996 M 2.9027706298828124 1.4771624999999997 L 2.9027706298828124 1.6729124999999998 L 3.1015206298828124 1.6729124999999998 L 3.1015206298828124 1.7164124999999997 L 2.9027706298828124 1.7164124999999997 L 2.9027706298828124 1.9151624999999997 L 3.1240206298828124 1.9151624999999997 L 3.1240206298828124 1.9586624999999998 L 2.8502706298828127 1.9586624999999998 L 2.8502706298828127 1.4336624999999996 L 3.1240206298828124 1.4336624999999996 L 3.1240206298828124 1.4771624999999997 L 2.9027706298828124 1.4771624999999997 M 3.239138671875 1.5577874999999999 Q 3.272888671875 1.4966624999999998 3.331388671875 1.4625374999999998 Q 3.389888671875 1.4284124999999999 3.461888671875 1.4284124999999999 Q 3.5496386718750004 1.4284124999999999 3.612263671875 1.4700374999999997 Q 3.6748886718750002 1.5116624999999997 3.7033886718750004 1.5874124999999997 L 3.6418886718750003 1.5874124999999997 Q 3.6193886718750004 1.5341624999999999 3.573263671875 1.5041624999999996 Q 3.527138671875 1.4741624999999998 3.461888671875 1.4741624999999998 Q 3.404138671875 1.4741624999999998 3.358013671875 1.5011624999999997 Q 3.3118886718750002 1.5281624999999996 3.285638671875 1.5787874999999998 Q 3.259388671875 1.6294124999999997 3.259388671875 1.6961624999999998 Q 3.259388671875 1.7629124999999997 3.285638671875 1.8131624999999998 Q 3.3118886718750002 1.8634124999999997 3.358013671875 1.8904124999999998 Q 3.404138671875 1.9174124999999997 3.461888671875 1.9174124999999997 Q 3.527138671875 1.9174124999999997 3.573263671875 1.8877874999999997 Q 3.6193886718750004 1.8581624999999997 3.6418886718750003 1.8056624999999997 L 3.7033886718750004 1.8056624999999997 Q 3.6748886718750002 1.8806624999999997 3.611888671875 1.9219124999999997 Q 3.5488886718750003 1.9631624999999997 3.461888671875 1.9631624999999997 Q 3.389888671875 1.9631624999999997 3.331388671875 1.9290374999999997 Q 3.272888671875 1.8949124999999998 3.239138671875 1.8341624999999997 Q 3.205388671875 1.7734124999999998 3.205388671875 1.6961624999999998 Q 3.205388671875 1.6189124999999998 3.239138671875 1.5577874999999999 M 4.1987607421875 1.4344124999999996 L 4.1987607421875 1.9586624999999998 L 4.1462607421875 1.9586624999999998 L 4.1462607421875 1.7134124999999998 L 3.8620107421874996 1.7134124999999998 L 3.8620107421874996 1.9586624999999998 L 3.8095107421875 1.9586624999999998 L 3.8095107421875 1.4344124999999996 L 3.8620107421874996 1.4344124999999996 L 3.8620107421874996 1.6699124999999997 L 4.1462607421875 1.6699124999999997 L 4.1462607421875 1.4344124999999996 L 4.1987607421875 1.4344124999999996 M 4.595887939453125 1.9459124999999997 Q 4.556512939453125 1.9279124999999997 4.534012939453125 1.8956624999999998 Q 4.511512939453125 1.8634124999999997 4.510012939453125 1.8236624999999997 L 4.565512939453125 1.8236624999999997 Q 4.569262939453125 1.8619124999999999 4.599262939453125 1.8907874999999998 Q 4.629262939453125 1.9196624999999998 4.687012939453125 1.9196624999999998 Q 4.740262939453125 1.9196624999999998 4.771387939453125 1.8922874999999997 Q 4.802512939453125 1.8649124999999998 4.802512939453125 1.8229124999999997 Q 4.802512939453125 1.7891624999999998 4.7852629394531245 1.7685374999999997 Q 4.768012939453125 1.7479124999999998 4.742512939453125 1.7377874999999998 Q 4.717012939453125 1.7276624999999997 4.672012939453125 1.7156624999999996 Q 4.619512939453125 1.7014124999999998 4.588762939453125 1.6879124999999997 Q 4.558012939453125 1.6744124999999999 4.536262939453125 1.6459124999999997 Q 4.514512939453125 1.6174124999999997 4.514512939453125 1.5686624999999998 Q 4.514512939453125 1.5281624999999996 4.535512939453125 1.4962874999999998 Q 4.556512939453125 1.4644124999999997 4.594762939453125 1.4464124999999997 Q 4.633012939453125 1.4284124999999999 4.682512939453125 1.4284124999999999 Q 4.755262939453125 1.4284124999999999 4.799887939453125 1.4640374999999997 Q 4.844512939453125 1.4996624999999997 4.851262939453125 1.5559124999999998 L 4.794262939453125 1.5559124999999998 Q 4.789012939453125 1.5236624999999997 4.759012939453125 1.4985374999999999 Q 4.729012939453125 1.4734124999999998 4.678012939453125 1.4734124999999998 Q 4.630762939453125 1.4734124999999998 4.599262939453125 1.4985374999999999 Q 4.567762939453125 1.5236624999999997 4.567762939453125 1.5671624999999998 Q 4.567762939453125 1.6001624999999997 4.585012939453125 1.6204124999999998 Q 4.602262939453125 1.6406624999999997 4.628137939453125 1.6511624999999999 Q 4.654012939453125 1.6616624999999998 4.698262939453125 1.6736624999999998 Q 4.749262939453125 1.6879124999999997 4.780762939453125 1.7017874999999998 Q 4.812262939453125 1.7156624999999996 4.834012939453125 1.7441624999999998 Q 4.8557629394531245 1.7726624999999998 4.8557629394531245 1.8206624999999996 Q 4.8557629394531245 1.8574124999999997 4.836262939453125 1.8904124999999998 Q 4.816762939453125 1.9234124999999997 4.778512939453125 1.9436624999999998 Q 4.740262939453125 1.9639124999999997 4.687012939453125 1.9639124999999997 Q 4.635262939453125 1.9639124999999997 4.595887939453125 1.9459124999999997 M 5.009154052734375 1.4344124999999996 L 5.009154052734375 1.7644124999999997 Q 5.009154052734375 1.8424124999999998 5.046279052734375 1.8799124999999997 Q 5.083404052734375 1.9174124999999997 5.147904052734375 1.9174124999999997 Q 5.212404052734375 1.9174124999999997 5.248779052734375 1.8802874999999997 Q 5.285154052734375 1.8431624999999998 5.285154052734375 1.7644124999999997 L 5.285154052734375 1.4344124999999996 L 5.337654052734375 1.4344124999999996 L 5.337654052734375 1.7636624999999997 Q 5.337654052734375 1.8634124999999997 5.284779052734375 1.9136624999999998 Q 5.231904052734375 1.9639124999999997 5.147154052734375 1.9639124999999997 Q 5.062404052734375 1.9639124999999997 5.009529052734375 1.9136624999999998 Q 4.956654052734375 1.8634124999999997 4.956654052734375 1.7636624999999997 L 4.956654052734375 1.4344124999999996 L 5.009154052734375 1.4344124999999996 M 5.747537109375 1.6939124999999997 Q 5.703287109375 1.7351624999999997 5.614787109375 1.7351624999999997 L 5.509037109375 1.7351624999999997 L 5.509037109375 1.9586624999999998 L 5.456537109375 1.9586624999999998 L 5.456537109375 1.4344124999999996 L 5.614787109375 1.4344124999999996 Q 5.702537109375 1.4344124999999996 5.747162109375 1.4756624999999999 Q 5.791787109375 1.5169124999999997 5.791787109375 1.5851624999999998 Q 5.791787109375 1.6526624999999997 5.747537109375 1.6939124999999997 M 5.737787109375 1.5851624999999998 Q 5.737787109375 1.5326624999999998 5.708537109375 1.5056624999999997 Q 5.679287109375 1.4786624999999998 5.614787109375 1.4786624999999998 L 5.509037109375 1.4786624999999998 L 5.509037109375 1.6901624999999998 L 5.614787109375 1.6901624999999998 Q 5.737787109375 1.6901624999999998 5.737787109375 1.5851624999999998 M 6.172431518554688 1.6939124999999997 Q 6.128181518554688 1.7351624999999997 6.039681518554688 1.7351624999999997 L 5.9339315185546875 1.7351624999999997 L 5.9339315185546875 1.9586624999999998 L 5.881431518554687 1.9586624999999998 L 5.881431518554687 1.4344124999999996 L 6.039681518554688 1.4344124999999996 Q 6.127431518554688 1.4344124999999996 6.172056518554688 1.4756624999999999 Q 6.2166815185546875 1.5169124999999997 6.2166815185546875 1.5851624999999998 Q 6.2166815185546875 1.6526624999999997 6.172431518554688 1.6939124999999997 M 6.162681518554687 1.5851624999999998 Q 6.162681518554687 1.5326624999999998 6.133431518554688 1.5056624999999997 Q 6.104181518554688 1.4786624999999998 6.039681518554688 1.4786624999999998 L 5.9339315185546875 1.4786624999999998 L 5.9339315185546875 1.6901624999999998 L 6.039681518554688 1.6901624999999998 Q 6.162681518554687 1.6901624999999998 6.162681518554687 1.5851624999999998 M 6.409825927734375 1.9297874999999998 Q 6.350575927734376 1.8956624999999998 6.316450927734375 1.8345374999999997 Q 6.282325927734375 1.7734124999999998 6.282325927734375 1.6961624999999998 Q 6.282325927734375 1.6189124999999998 6.316450927734375 1.5577874999999999 Q 6.350575927734376 1.4966624999999998 6.409825927734375 1.4625374999999998 Q 6.469075927734375 1.4284124999999999 6.541825927734375 1.4284124999999999 Q 6.615325927734375 1.4284124999999999 6.6745759277343755 1.4625374999999998 Q 6.733825927734375 1.4966624999999998 6.767575927734375 1.5577874999999999 Q 6.801325927734375 1.6189124999999998 6.801325927734375 1.6961624999999998 Q 6.801325927734375 1.7734124999999998 6.767575927734375 1.8345374999999997 Q 6.733825927734375 1.8956624999999998 6.6745759277343755 1.9297874999999998 Q 6.615325927734375 1.9639124999999997 6.541825927734375 1.9639124999999997 Q 6.469075927734375 1.9639124999999997 6.409825927734375 1.9297874999999998 M 6.646825927734375 1.8911624999999996 Q 6.693325927734375 1.8641624999999997 6.720325927734375 1.8135374999999998 Q 6.747325927734376 1.7629124999999997 6.747325927734376 1.6961624999999998 Q 6.747325927734376 1.6294124999999997 6.720325927734375 1.5791624999999998 Q 6.693325927734375 1.5289124999999997 6.646825927734375 1.5019124999999998 Q 6.600325927734375 1.4749124999999998 6.541825927734375 1.4749124999999998 Q 6.483325927734375 1.4749124999999998 6.436825927734375 1.5019124999999998 Q 6.390325927734375 1.5289124999999997 6.363325927734375 1.5791624999999998 Q 6.336325927734375 1.6294124999999997 6.336325927734375 1.6961624999999998 Q 6.336325927734375 1.7629124999999997 6.363325927734375 1.8135374999999998 Q 6.390325927734375 1.8641624999999997 6.436825927734375 1.8911624999999996 Q 6.483325927734375 1.9181624999999998 6.541825927734375 1.9181624999999998 Q 6.600325927734375 1.9181624999999998 6.646825927734375 1.8911624999999996 M 7.178219604492188 1.9586624999999998 L 7.048469604492188 1.7396624999999997 L 6.951719604492188 1.7396624999999997 L 6.951719604492188 1.9586624999999998 L 6.899219604492187 1.9586624999999998 L 6.899219604492187 1.4344124999999996 L 7.056719604492188 1.4344124999999996 Q 7.144469604492188 1.4344124999999996 7.189844604492188 1.4764124999999997 Q 7.235219604492188 1.5184124999999997 7.235219604492188 1.5866624999999996 Q 7.235219604492188 1.6436624999999998 7.202594604492187 1.6837874999999998 Q 7.169969604492188 1.7239124999999997 7.106219604492188 1.7359124999999997 L 7.241219604492188 1.9586624999999998 L 7.178219604492188 1.9586624999999998 M 6.951719604492188 1.6969124999999998 L 7.057469604492188 1.6969124999999998 Q 7.118969604492188 1.6969124999999998 7.150094604492188 1.6669124999999998 Q 7.181219604492187 1.6369124999999998 7.181219604492187 1.5866624999999996 Q 7.181219604492187 1.5349124999999997 7.151219604492188 1.5067874999999997 Q 7.121219604492188 1.4786624999999998 7.056719604492188 1.4786624999999998 L 6.951719604492188 1.4786624999999998 L 6.951719604492188 1.6969124999999998 M 7.648075927734375 1.4344124999999996 L 7.648075927734375 1.4779124999999997 L 7.502575927734376 1.4779124999999997 L 7.502575927734376 1.9586624999999998 L 7.4500759277343755 1.9586624999999998 L 7.4500759277343755 1.4779124999999997 L 7.303825927734375 1.4779124999999997 L 7.303825927734375 1.4344124999999996 L 7.648075927734375 1.4344124999999996" fill="#3682ae" fill-rule="nonzero"></path></g></g><defs><clipPath id="SvgjsClipPath71110"><path d=" M 1.4890500997814051 -7.360799485436666 h 5.232743794577814 v 7.110799485436666 h -5.232743794577814 Z"></path></clipPath><clipPath id="SvgjsClipPath711051e35debf-90a1-4e56-95bc-01c7e3de12c5"><path d=" M 1.4890500997814051 -7.360799485436666 L 6.7217938943592195 -7.360799485436666 L 6.7217938943592195 -0.25 L 1.4890500997814051 -0.25 Z"></path></clipPath></defs></svg>